<svg width="18" height="19" viewBox="0 0 18 19" fill="none" xmlns="http://www.w3.org/2000/svg">
<path d="M11.25 14.75C11.25 15.3467 11.013 15.919 10.591 16.341C10.169 16.7629 9.59674 17 9.00001 17C8.40327 17 7.83097 16.7629 7.40902 16.341C6.98706 15.919 6.75001 15.3467 6.75001 14.75M11.8988 12.5C12.7322 11.9954 13.4211 11.2841 13.8987 10.435C14.3764 9.58587 14.6266 8.62775 14.625 7.6535C14.625 4.53125 12.1065 2 9.00001 2C5.89351 2 3.37501 4.53125 3.37501 7.6535C3.37346 8.62775 3.62363 9.58587 4.10128 10.435C4.57893 11.2841 5.26785 11.9954 6.10126 12.5M11.8988 12.5H6.10126M11.8988 12.5V14.75H6.10126V12.5" stroke="#E2C541" stroke-width="1.5" stroke-linecap="round" stroke-linejoin="round"/>
</svg>
