<svg width="12" height="7" viewBox="0 0 12 7" fill="none" xmlns="http://www.w3.org/2000/svg">
<path fill-rule="evenodd" clip-rule="evenodd" d="M0.969773 0.46975C1.11042 0.329147 1.30115 0.25016 1.50002 0.25016C1.6989 0.25016 1.88963 0.329147 2.03027 0.46975L6.00002 4.4395L9.96977 0.46975C10.039 0.398118 10.1217 0.340981 10.2132 0.301674C10.3047 0.262367 10.4031 0.241677 10.5027 0.240812C10.6023 0.239947 10.7011 0.258923 10.7932 0.296634C10.8854 0.334345 10.9691 0.390035 11.0396 0.460454C11.11 0.530874 11.1657 0.614612 11.2034 0.706785C11.2411 0.798957 11.2601 0.897716 11.2592 0.997301C11.2583 1.09689 11.2377 1.1953 11.1983 1.2868C11.159 1.37831 11.1019 1.46106 11.0303 1.53025L6.53027 6.03025C6.38963 6.17085 6.1989 6.24984 6.00002 6.24984C5.80115 6.24984 5.61042 6.17085 5.46977 6.03025L0.969773 1.53025C0.82917 1.3896 0.750183 1.19887 0.750183 1C0.750183 0.801127 0.82917 0.610396 0.969773 0.46975Z" fill="#B4B4B4"/>
</svg>
