<svg width="36" height="37" viewBox="0 0 36 37" fill="none" xmlns="http://www.w3.org/2000/svg">
<rect y="0.5" width="32" height="32" rx="16" fill="#D7D7D7"/>
<path fill-rule="evenodd" clip-rule="evenodd" d="M15.192 9.40596C15.4063 9.19175 15.697 9.07141 16 9.07141C16.303 9.07141 16.5937 9.19175 16.808 9.40596L21.951 14.549C22.157 14.7649 22.2704 15.0529 22.2669 15.3514C22.2634 15.6499 22.1433 15.9351 21.9322 16.1462C21.7212 16.3573 21.4359 16.4774 21.1374 16.4809C20.839 16.4844 20.551 16.371 20.335 16.165L17.143 12.973V22.786C17.143 23.0891 17.0226 23.3798 16.8082 23.5942C16.5939 23.8085 16.3031 23.929 16 23.929C15.6969 23.929 15.4061 23.8085 15.1918 23.5942C14.9774 23.3798 14.857 23.0891 14.857 22.786V12.973L11.665 16.165C11.5598 16.2752 11.4337 16.3633 11.294 16.4241C11.1542 16.4849 11.0038 16.5171 10.8514 16.5189C10.6991 16.5207 10.5479 16.492 10.4068 16.4345C10.2657 16.377 10.1375 16.2919 10.0298 16.1842C9.92205 16.0764 9.83694 15.9483 9.77946 15.8071C9.72198 15.666 9.6933 15.5149 9.69509 15.3625C9.69688 15.2102 9.72911 15.0597 9.78988 14.92C9.85066 14.7803 9.93876 14.6541 10.049 14.549L15.192 9.40596Z" fill="#F4F4F4"/>
</svg>
