<svg width="20" height="19" viewBox="0 0 20 19" fill="none" xmlns="http://www.w3.org/2000/svg">
<path fill-rule="evenodd" clip-rule="evenodd" d="M10.3412 3.57877C10.2356 3.52479 10.1186 3.49664 10 3.49664C9.88135 3.49664 9.7644 3.52479 9.65875 3.57877L2.49025 7.23652L1.80775 5.90002L8.97775 2.24227C9.29432 2.08082 9.64463 1.99664 10 1.99664C10.3554 1.99664 10.7057 2.08082 11.0222 2.24227L18.1922 5.90002C18.4672 6.03782 18.6926 6.25758 18.8373 6.52896C18.9819 6.80034 19.0388 7.10994 19 7.41502V11.75C19 11.9489 18.921 12.1397 18.7803 12.2804C18.6397 12.421 18.4489 12.5 18.25 12.5C18.0511 12.5 17.8603 12.421 17.7197 12.2804C17.579 12.1397 17.5 11.9489 17.5 11.75V8.91202L15.9752 9.65827V12.7288C15.9753 13.1351 15.8653 13.534 15.6569 13.8828C15.4485 14.2317 15.1496 14.5177 14.7917 14.7103L11.0665 16.715C10.7387 16.8915 10.3723 16.9838 10 16.9838C9.62773 16.9838 9.26128 16.8915 8.9335 16.715L5.20825 14.7103C4.85042 14.5177 4.55145 14.2317 4.34307 13.8828C4.13469 13.534 4.02469 13.1351 4.02475 12.7288V9.65827L1.8295 8.58352C0.719498 8.03977 0.707498 6.46177 1.80775 5.90002L2.49025 7.23652L9.67 10.7533C9.77272 10.8036 9.8856 10.8298 10 10.8298C10.1144 10.8298 10.2273 10.8036 10.33 10.7533L17.5 7.24177V7.23127L10.3412 3.57877ZM5.52475 10.3925V12.728C5.52482 12.8634 5.56153 12.9962 5.63098 13.1124C5.70044 13.2286 5.80005 13.3239 5.91925 13.388L9.6445 15.3935C9.75376 15.4523 9.87591 15.4831 10 15.4831C10.1241 15.4831 10.2462 15.4523 10.3555 15.3935L14.0807 13.3888C14.1999 13.3246 14.2996 13.2294 14.369 13.1132C14.4385 12.997 14.4752 12.8641 14.4752 12.7288V10.3925L10.99 12.0995C10.6818 12.2505 10.3432 12.329 10 12.329C9.65681 12.329 9.31818 12.2505 9.01 12.0995L5.52475 10.3925Z" fill="#76D0EB"/>
</svg>
