<svg width="40" height="41" viewBox="0 0 40 41" fill="none" xmlns="http://www.w3.org/2000/svg">
<path fill-rule="evenodd" clip-rule="evenodd" d="M16.857 11.5H23.143C24.227 11.5 25.101 11.5 25.809 11.558C26.538 11.618 27.178 11.743 27.77 12.045C28.7108 12.5244 29.4756 13.2892 29.955 14.23C30.257 14.822 30.383 15.463 30.442 16.191C30.5 16.899 30.5 17.773 30.5 18.857V22.143C30.5 23.227 30.5 24.101 30.442 24.809C30.382 25.538 30.257 26.178 29.955 26.77C29.4756 27.7108 28.7108 28.4756 27.77 28.955C27.178 29.257 26.538 29.383 25.809 29.442C25.1 29.5 24.227 29.5 23.143 29.5H16.857C15.773 29.5 14.899 29.5 14.191 29.442C13.463 29.382 12.822 29.257 12.231 28.955C11.2899 28.4758 10.5246 27.7109 10.045 26.77C9.743 26.178 9.617 25.538 9.558 24.809C9.5 24.1 9.5 23.227 9.5 22.143V18.857C9.5 17.773 9.5 16.899 9.558 16.191C9.618 15.463 9.743 14.822 10.045 14.231C10.524 13.2895 11.2889 12.5239 12.23 12.044C12.822 11.742 13.463 11.616 14.191 11.557C14.9 11.5 15.773 11.5 16.857 11.5ZM14.354 13.551C13.749 13.601 13.401 13.693 13.138 13.827C12.5735 14.1146 12.1146 14.5735 11.827 15.138C11.693 15.401 11.601 15.749 11.551 16.354C11.501 16.971 11.5 17.764 11.5 18.9V22.1C11.5 23.237 11.5 24.029 11.551 24.646C11.601 25.251 11.693 25.599 11.827 25.862C12.1146 26.4265 12.5735 26.8854 13.138 27.173C13.401 27.307 13.749 27.399 14.354 27.449C14.971 27.499 15.764 27.5 16.9 27.5H17.5V13.5H16.9C15.763 13.5 14.971 13.5 14.354 13.551ZM19.5 13.5V27.5H23.1C24.237 27.5 25.029 27.5 25.646 27.449C26.251 27.399 26.599 27.307 26.862 27.173C27.4265 26.8854 27.8854 26.4265 28.173 25.862C28.307 25.599 28.399 25.251 28.449 24.646C28.499 24.029 28.5 23.236 28.5 22.1V18.9C28.5 17.763 28.5 16.971 28.449 16.354C28.399 15.749 28.307 15.401 28.173 15.138C27.8854 14.5735 27.4265 14.1146 26.862 13.827C26.599 13.693 26.251 13.601 25.646 13.551C25.029 13.501 24.236 13.5 23.1 13.5H19.5ZM13 17C13 16.7348 13.1054 16.4804 13.2929 16.2929C13.4804 16.1054 13.7348 16 14 16H15C15.2652 16 15.5196 16.1054 15.7071 16.2929C15.8946 16.4804 16 16.7348 16 17C16 17.2652 15.8946 17.5196 15.7071 17.7071C15.5196 17.8946 15.2652 18 15 18H14C13.7348 18 13.4804 17.8946 13.2929 17.7071C13.1054 17.5196 13 17.2652 13 17ZM13 20.5C13 20.2348 13.1054 19.9804 13.2929 19.7929C13.4804 19.6054 13.7348 19.5 14 19.5H15C15.2652 19.5 15.5196 19.6054 15.7071 19.7929C15.8946 19.9804 16 20.2348 16 20.5C16 20.7652 15.8946 21.0196 15.7071 21.2071C15.5196 21.3946 15.2652 21.5 15 21.5H14C13.7348 21.5 13.4804 21.3946 13.2929 21.2071C13.1054 21.0196 13 20.7652 13 20.5Z" fill="#7D7D7D"/>
</svg>
