<svg width="40" height="41" viewBox="0 0 40 41" fill="none" xmlns="http://www.w3.org/2000/svg">
<path d="M23.673 12.413C24.2583 11.8277 25.0522 11.4988 25.88 11.4988C26.2899 11.4988 26.6957 11.5796 27.0744 11.7364C27.4531 11.8933 27.7972 12.1232 28.087 12.413C28.3768 12.7028 28.6067 13.0469 28.7636 13.4256C28.9204 13.8043 29.0012 14.2101 29.0012 14.62C29.0012 15.0299 28.9204 15.4357 28.7636 15.8144C28.6067 16.1931 28.3768 16.5372 28.087 16.827L22.15 22.764C21.3852 23.5292 20.3929 24.0257 19.322 24.179L17.142 24.489C16.9884 24.511 16.8318 24.497 16.6845 24.448C16.5373 24.399 16.4035 24.3165 16.2937 24.2068C16.1838 24.0972 16.101 23.9635 16.0518 23.8164C16.0026 23.6692 15.9883 23.5126 16.01 23.359L16.321 21.179C16.4741 20.1077 16.9706 19.115 17.736 18.35L23.673 12.413ZM26.673 13.827C26.569 13.7227 26.4454 13.6399 26.3093 13.5835C26.1732 13.527 26.0273 13.4979 25.88 13.4979C25.7327 13.4979 25.5868 13.527 25.4507 13.5835C25.3146 13.6399 25.191 13.7227 25.087 13.827L19.15 19.764C18.6908 20.2229 18.3929 20.8184 18.301 21.461L18.178 22.321L19.038 22.199C19.681 22.1073 20.2768 21.8093 20.736 21.35L26.673 15.413C26.7773 15.309 26.8601 15.1854 26.9165 15.0493C26.973 14.9132 27.0021 14.7673 27.0021 14.62C27.0021 14.4727 26.973 14.3268 26.9165 14.1907C26.8601 14.0546 26.7773 13.931 26.673 13.827ZM19 12.5C19 12.7652 18.8946 13.0196 18.7071 13.2071C18.5196 13.3946 18.2652 13.5 18 13.5C17.002 13.5 16.298 13.508 15.747 13.56C15.207 13.612 14.885 13.701 14.638 13.827C14.0735 14.1146 13.6146 14.5735 13.327 15.138C13.193 15.401 13.101 15.749 13.051 16.354C13.001 16.971 13 17.764 13 18.9V22.1C13 23.237 13 24.029 13.051 24.646C13.101 25.251 13.193 25.599 13.327 25.862C13.6146 26.4265 14.0735 26.8854 14.638 27.173C14.901 27.307 15.249 27.399 15.854 27.449C16.471 27.499 17.264 27.5 18.4 27.5H21.6C22.737 27.5 23.529 27.5 24.146 27.449C24.751 27.399 25.099 27.307 25.362 27.173C25.9265 26.8854 26.3854 26.4265 26.673 25.862C26.799 25.615 26.888 25.293 26.939 24.754C26.992 24.202 26.999 23.498 26.999 22.499C26.9991 22.3677 27.0251 22.2377 27.0755 22.1164C27.1259 21.9951 27.1996 21.885 27.2926 21.7922C27.3856 21.6994 27.4959 21.6259 27.6172 21.5757C27.7386 21.5256 27.8687 21.4999 28 21.5C28.1313 21.5001 28.2613 21.5261 28.3826 21.5765C28.5039 21.6269 28.614 21.7007 28.7068 21.7936C28.7996 21.8866 28.8731 21.9969 28.9233 22.1182C28.9734 22.2396 28.9991 22.3697 28.999 22.501C28.999 23.479 28.993 24.281 28.93 24.943C28.866 25.616 28.738 26.213 28.455 26.77C27.9756 27.7108 27.2108 28.4756 26.27 28.955C25.678 29.257 25.038 29.383 24.309 29.442C23.6 29.5 22.727 29.5 21.643 29.5H18.357C17.273 29.5 16.399 29.5 15.691 29.442C14.963 29.382 14.322 29.257 13.731 28.955C12.7899 28.4758 12.0246 27.7109 11.545 26.77C11.243 26.178 11.117 25.537 11.058 24.809C11 24.1 11 23.227 11 22.143V18.857C11 17.773 11 16.899 11.058 16.191C11.118 15.462 11.243 14.822 11.545 14.23C12.0244 13.2892 12.7892 12.5244 13.73 12.045C14.286 11.761 14.884 11.634 15.557 11.57C16.22 11.507 17.021 11.5 18 11.5C18.2652 11.5 18.5196 11.6054 18.7071 11.7929C18.8946 11.9804 19 12.2348 19 12.5Z" fill="#7D7D7D"/>
</svg>
