<svg width="18" height="19" viewBox="0 0 18 19" fill="none" xmlns="http://www.w3.org/2000/svg">
<path d="M7.2375 10.2695L4.77225 11.162C4.39907 11.2982 3.98709 11.2808 3.62672 11.1137C3.26635 10.9465 2.98701 10.6432 2.85 10.2703L2.5935 9.56978L3.04125 8.61353L1.3125 6.06428L3.0735 5.42678L4.9965 6.53978C5.18651 6.65018 5.39847 6.71748 5.61736 6.73692C5.83626 6.75636 6.05675 6.72746 6.26325 6.65228L12.6473 4.34003C12.8655 4.26053 13.0995 4.23353 13.3312 4.25978L15.456 4.50353C15.7666 4.53742 16.0566 4.67562 16.2785 4.89556C16.5005 5.11549 16.6413 5.40418 16.6781 5.71448C16.7148 6.02478 16.6452 6.33836 16.4808 6.60404C16.3163 6.86972 16.0666 7.0718 15.7725 7.17728L11.8155 8.61053M12.264 7.65428L9.75 11.375L7.63725 12.14L7.38 9.42353" stroke="#E2C541" stroke-width="1.5" stroke-linecap="round" stroke-linejoin="round"/>
<path d="M2.25 14.75H15.75" stroke="#E2C541" stroke-width="1.5" stroke-linecap="round"/>
</svg>
