<svg width="24" height="25" viewBox="0 0 24 25" fill="none" xmlns="http://www.w3.org/2000/svg">
<rect x="0.5" y="1" width="23" height="23" rx="11.5" stroke="black" stroke-opacity="0.1"/>
<path d="M12.3457 14.0977H11.2559C11.2598 13.7227 11.293 13.416 11.3555 13.1777C11.4219 12.9355 11.5293 12.7148 11.6777 12.5156C11.8262 12.3164 12.0234 12.0898 12.2695 11.8359C12.4492 11.6523 12.6133 11.4805 12.7617 11.3203C12.9141 11.1562 13.0371 10.9805 13.1309 10.793C13.2246 10.6016 13.2715 10.373 13.2715 10.1074C13.2715 9.83789 13.2227 9.60547 13.125 9.41016C13.0312 9.21484 12.8906 9.06445 12.7031 8.95898C12.5195 8.85352 12.291 8.80078 12.0176 8.80078C11.791 8.80078 11.5762 8.8418 11.373 8.92383C11.1699 9.00586 11.0059 9.13281 10.8809 9.30469C10.7559 9.47266 10.6914 9.69336 10.6875 9.9668H9.60352C9.61133 9.52539 9.7207 9.14648 9.93164 8.83008C10.1465 8.51367 10.4355 8.27148 10.7988 8.10352C11.1621 7.93555 11.5684 7.85156 12.0176 7.85156C12.5137 7.85156 12.9355 7.94141 13.2832 8.12109C13.6348 8.30078 13.9023 8.55859 14.0859 8.89453C14.2695 9.22656 14.3613 9.62109 14.3613 10.0781C14.3613 10.4297 14.2891 10.7539 14.1445 11.0508C14.0039 11.3438 13.8223 11.6191 13.5996 11.877C13.377 12.1348 13.1406 12.3809 12.8906 12.6152C12.6758 12.8145 12.5312 13.0391 12.457 13.2891C12.3828 13.5391 12.3457 13.8086 12.3457 14.0977ZM11.209 15.9551C11.209 15.7793 11.2637 15.6309 11.373 15.5098C11.4824 15.3887 11.6406 15.3281 11.8477 15.3281C12.0586 15.3281 12.2188 15.3887 12.3281 15.5098C12.4375 15.6309 12.4922 15.7793 12.4922 15.9551C12.4922 16.123 12.4375 16.2676 12.3281 16.3887C12.2188 16.5098 12.0586 16.5703 11.8477 16.5703C11.6406 16.5703 11.4824 16.5098 11.373 16.3887C11.2637 16.2676 11.209 16.123 11.209 15.9551Z" fill="#7D7D7D"/>
</svg>
