<svg width="14" height="21" viewBox="0 0 14 21" fill="none" xmlns="http://www.w3.org/2000/svg">
<path fill-rule="evenodd" clip-rule="evenodd" d="M4 5.5C4 4.17392 4.52678 2.90215 5.46447 1.96447C6.40215 1.02678 7.67392 0.5 9 0.5C10.3261 0.5 11.5979 1.02678 12.5355 1.96447C13.4732 2.90215 14 4.17392 14 5.5V13.5C14 14.4193 13.8189 15.3295 13.4672 16.1788C13.1154 17.0281 12.5998 17.7997 11.9497 18.4497C11.2997 19.0998 10.5281 19.6154 9.67878 19.9672C8.8295 20.3189 7.91925 20.5 7 20.5C6.08075 20.5 5.17049 20.3189 4.32122 19.9672C3.47194 19.6154 2.70026 19.0998 2.05025 18.4497C1.40024 17.7997 0.884626 17.0281 0.532843 16.1788C0.18106 15.3295 -1.36979e-08 14.4193 0 13.5V7.5C0 7.23478 0.105357 6.98043 0.292893 6.79289C0.48043 6.60536 0.734784 6.5 1 6.5C1.26522 6.5 1.51957 6.60536 1.70711 6.79289C1.89464 6.98043 2 7.23478 2 7.5V13.5C2 14.8261 2.52678 16.0979 3.46447 17.0355C4.40215 17.9732 5.67392 18.5 7 18.5C8.32608 18.5 9.59785 17.9732 10.5355 17.0355C11.4732 16.0979 12 14.8261 12 13.5V5.5C12 5.10603 11.9224 4.71593 11.7716 4.35195C11.6209 3.98797 11.3999 3.65726 11.1213 3.37868C10.8427 3.1001 10.512 2.87913 10.1481 2.72836C9.78407 2.5776 9.39397 2.5 9 2.5C8.60603 2.5 8.21593 2.5776 7.85195 2.72836C7.48797 2.87913 7.15726 3.1001 6.87868 3.37868C6.6001 3.65726 6.37913 3.98797 6.22836 4.35195C6.0776 4.71593 6 5.10603 6 5.5V13.5C6 13.7652 6.10536 14.0196 6.29289 14.2071C6.48043 14.3946 6.73478 14.5 7 14.5C7.26522 14.5 7.51957 14.3946 7.70711 14.2071C7.89464 14.0196 8 13.7652 8 13.5V7.5C8 7.23478 8.10536 6.98043 8.29289 6.79289C8.48043 6.60536 8.73478 6.5 9 6.5C9.26522 6.5 9.51957 6.60536 9.70711 6.79289C9.89464 6.98043 10 7.23478 10 7.5V13.5C10 14.2956 9.68393 15.0587 9.12132 15.6213C8.55871 16.1839 7.79565 16.5 7 16.5C6.20435 16.5 5.44129 16.1839 4.87868 15.6213C4.31607 15.0587 4 14.2956 4 13.5V5.5Z" fill="#0D0D0D"/>
</svg>
