<svg width="23" height="29" viewBox="0 0 23 29" fill="none" xmlns="http://www.w3.org/2000/svg">
<rect x="0.5" y="1" width="21.21" height="27" rx="10.605" stroke="black" stroke-opacity="0.1"/>
<path d="M7.36264 9.46267C7.48798 9.068 8.04531 9.068 8.17064 9.46267C8.69998 12.4333 9.16664 12.9 12.1373 13.4293C12.532 13.5547 12.532 14.112 12.1373 14.2373C9.16664 14.7667 8.69998 15.2333 8.17064 18.204C8.04531 18.5987 7.48798 18.5987 7.36264 18.204C6.83331 15.2333 6.36664 14.7667 3.39598 14.2373C3.00131 14.112 3.00131 13.5547 3.39598 13.4293C6.36664 12.9 6.83331 12.4333 7.36264 9.46267ZM13.1733 16.0233C13.1911 15.9684 13.2259 15.9205 13.2726 15.8866C13.3193 15.8526 13.3756 15.8343 13.4333 15.8343C13.4911 15.8343 13.5473 15.8526 13.594 15.8866C13.6407 15.9205 13.6755 15.9684 13.6933 16.0233C14.0333 17.9333 14.3333 18.2333 16.2433 18.574C16.4966 18.654 16.4966 19.0127 16.2433 19.0927C14.3333 19.4333 14.0333 19.7333 13.6926 21.6433C13.6752 21.6984 13.6407 21.7466 13.594 21.7807C13.5474 21.8149 13.4911 21.8333 13.4333 21.8333C13.3755 21.8333 13.3192 21.8149 13.2726 21.7807C13.2259 21.7466 13.1914 21.6984 13.174 21.6433C12.8333 19.7333 12.5333 19.4333 10.6233 19.0927C10.5682 19.0752 10.5201 19.0407 10.4859 18.9941C10.4518 18.9474 10.4333 18.8911 10.4333 18.8333C10.4333 18.7755 10.4518 18.7192 10.4859 18.6726C10.5201 18.626 10.5682 18.5914 10.6233 18.574C12.5333 18.2333 12.8333 17.9333 13.174 16.0233H13.1733ZM14.8113 7.378C14.8307 7.3166 14.8691 7.26298 14.921 7.22491C14.9729 7.18684 15.0356 7.16632 15.1 7.16632C15.1643 7.16632 15.227 7.18684 15.279 7.22491C15.3309 7.26298 15.3693 7.3166 15.3886 7.378C15.7666 9.5 16.1 9.83333 18.222 10.2113C18.2834 10.2307 18.337 10.2691 18.3751 10.321C18.4131 10.3729 18.4337 10.4356 18.4337 10.5C18.4337 10.5644 18.4131 10.6271 18.3751 10.679C18.337 10.7309 18.2834 10.7693 18.222 10.7887C16.1 11.1667 15.7666 11.5 15.3886 13.622C15.3693 13.6834 15.3309 13.737 15.279 13.7751C15.227 13.8132 15.1643 13.8337 15.1 13.8337C15.0356 13.8337 14.9729 13.8132 14.921 13.7751C14.8691 13.737 14.8307 13.6834 14.8113 13.622C14.4333 11.5 14.1 11.1667 11.978 10.7887C11.9166 10.7693 11.863 10.7309 11.8249 10.679C11.7868 10.6271 11.7663 10.5644 11.7663 10.5C11.7663 10.4356 11.7868 10.3729 11.8249 10.321C11.863 10.2691 11.9166 10.2307 11.978 10.2113C14.1 9.83333 14.4333 9.5 14.8113 7.378Z" fill="black"/>
</svg>
